<svg xmlns="http://www.w3.org/2000/svg" opacity="0.2" viewBox="0 0 50 50" width="80" height="80">
  <g fill="none" stroke="#6EA895" stroke-width="1">
    <path stroke-dasharray="2" d="M 20 0 v 50"/>
    <path stroke-dasharray="2" d="M 30 50 v -10 h 10 v -10"/>
    <path stroke-dasharray="2" d="M 0 20 h 5 v -5 h 5 v 15 h 10"/>
    <path stroke-dasharray="2" d="M 50 20 h -10 v -5 h -10 v 15 h -10"/>
    <path stroke-dasharray="2" d="M 0 45 h 10 v -5"/>
    <path stroke-dasharray="2" d="M 50 45 h -15"/>
    <path stroke-dasharray="2" d="M 10 50 v -5"/>
    <path stroke-dasharray="2" d="M 10 0 v 10"/>
    <path stroke-dasharray="2" d="M 40 0 v 15"/>
    <path stroke-dasharray="2" d="M 40 50 v -5"/>
    <path stroke-dasharray="2" d="M 30 0 v 5"/>
  </g>
  <circle fill="#6EA895" cx="40" cy="30" r="1.5"/>
  <circle fill="#6EA895" cx="20" cy="30" r="1.5"/>
  <circle fill="#6EA895" cx="10" cy="40" r="1.5"/>
  <circle fill="#6EA895" cx="35" cy="45" r="1.5"/>
  <circle fill="#6EA895" cx="10" cy="10" r="1.5"/>
  <circle fill="#6EA895" cx="30" cy="5" r="1.5"/>
</svg>